inDegrees=no
num_controls=7
num_derivatives=13
num_iterations=174
num_multipliers=7
num_parameters=0
num_slacks=7
num_states=26
objective=6.016055
objective_accelerations=0.370837
objective_balance=0.045998
objective_effort=0.415294
objective_height=5.095022
objective_ligament=0.088904
solver_duration=1552.974231
status=Solve_Succeeded
success=true
DataType=double
version=3
OpenSimVersion=4.4-2022-07-23-0e9fedc
endheader
time	/jointset/ground_pelvis/pelvis_tilt/value	/jointset/ground_pelvis/pelvis_tx/value	/jointset/ground_pelvis/pelvis_ty/value	/jointset/hip_r/hip_flexion_r/value	/jointset/hip_r/hip_adduction_r/value	/jointset/hip_r/hip_rotation_r/value	/jointset/back/lumbar_extension/value	/jointset/patellofemoral_r/patellar_flexion_r/value	/jointset/knee_r/knee_flexion_r/value	/jointset/knee_r/knee_adduction_r/value	/jointset/knee_r/knee_rotation_r/value	/jointset/ankle_r/ankle_angle_r/value	/jointset/subtalar_r/subtalar_angle_r/value	/jointset/ground_pelvis/pelvis_tilt/speed	/jointset/ground_pelvis/pelvis_tx/speed	/jointset/ground_pelvis/pelvis_ty/speed	/jointset/hip_r/hip_flexion_r/speed	/jointset/hip_r/hip_adduction_r/speed	/jointset/hip_r/hip_rotation_r/speed	/jointset/back/lumbar_extension/speed	/jointset/patellofemoral_r/patellar_flexion_r/speed	/jointset/knee_r/knee_flexion_r/speed	/jointset/knee_r/knee_adduction_r/speed	/jointset/knee_r/knee_rotation_r/speed	/jointset/ankle_r/ankle_angle_r/speed	/jointset/subtalar_r/subtalar_angle_r/speed	/forceset/tau_hip_flexion_r	/forceset/tau_hip_adduction_r	/forceset/tau_hip_rotation_r	/forceset/tau_knee_flexion_r	/forceset/tau_ankle_angle_r	/forceset/tau_subtalar_angle_r	/forceset/tau_lumbar_extension	lambda_cid13_p0	lambda_cid14_p0	lambda_cid14_p1	lambda_cid14_p2	lambda_cid14_p3	lambda_cid14_p4	lambda_cid14_p5	/jointset/ground_pelvis/pelvis_tilt/accel	/jointset/ground_pelvis/pelvis_tx/accel	/jointset/ground_pelvis/pelvis_ty/accel	/jointset/hip_r/hip_flexion_r/accel	/jointset/hip_r/hip_adduction_r/accel	/jointset/hip_r/hip_rotation_r/accel	/jointset/back/lumbar_extension/accel	/jointset/patellofemoral_r/patellar_flexion_r/accel	/jointset/knee_r/knee_flexion_r/accel	/jointset/knee_r/knee_adduction_r/accel	/jointset/knee_r/knee_rotation_r/accel	/jointset/ankle_r/ankle_angle_r/accel	/jointset/subtalar_r/subtalar_angle_r/accel	gamma_cid13_p0	gamma_cid14_p0	gamma_cid14_p1	gamma_cid14_p2	gamma_cid14_p3	gamma_cid14_p4	gamma_cid14_p5
0	-0.006516711653351898	0.09626121952955839	0.9427240283626367	0.1762555651711513	-0.2321527055404145	-0.2616407444049476	-0.0385979564078546	0.07317816487765189	0.07317816487761825	0.174532915584137	0.174532897565265	0.0324735960626065	-0.00345180234260085	0	0	0	0	0	0	0	0	0	0	0	0	0	0.2322750898479698	-0.1808751964654521	-0.04980082688879477	-0.4433328293871479	0.4715689050100355	-0.1475466239343278	-0.1221026851967388	-39.07642237712564	101.8434351596415	-36.54596669976778	-4.795033741348113	-57.56055349172291	-682.07798700704	65.26979543441206	-1.211156246946401	-0.4237637416796374	-0.4355998618818831	6.560867914311374	0.2987016899509791	2.114463616595755	-4.515878785559057	8.004248799826303	8.004248799821752	-2.756899371019501	0.1480566662019173	3.478927268395597	1.1054865902966	9.02382475441711e-08	5.11391718094874e-08	-6.012487873234079e-07	2.198953146880475e-07	3.58207634649225e-08	-6.464891316928975e-10	-3.632336880146663e-07
0.01	-0.006571874953019227	0.09623966587907863	0.9427031551387447	0.1765728766340735	-0.232136749082183	-0.2615278922523955	-0.03882563748932763	0.07356727891950923	0.07356727891956386	0.1743951653638285	0.1745299893235394	0.03264301317221033	-0.003396585761121912	-0.01094504407176378	-0.004370333105904707	-0.004168755020922578	0.0632307757342714	0.003125870157728201	0.02243878149001593	-0.04527024404442965	0.07749884743812548	0.07749884743811654	-0.02731787391281259	-0.0005467430672275354	0.0336272446056767	0.01091648909106589	0.2239938660956954	-0.1971042569593062	-0.04717640824068753	-0.4290393757234168	0.4451403929481171	-0.1244212554902105	-0.1160015727243987	-39.08924841969973	94.19104556901388	-27.94004627418858	-6.05562865742414	-52.22969457778807	-682.2137219417701	81.43710195571285	-1.023029634106932	-0.4526013817191995	-0.4066299879109121	6.169460828727616	0.3096673004212486	2.28888797726418	-4.492701376479326	7.574090527439226	7.574090527440785	-2.684473133431467	-0.150745390211983	3.266211537694596	1.065636688412518	1.223653590973904e-07	6.573817658727492e-08	-7.966476355121033e-07	2.273875365661256e-07	5.347127486316346e-08	-1.034358907848955e-07	-4.198607054051327e-07
0.02	-0.006733858922759008	0.09617262224020565	0.9426407710315	0.1775155515394795	-0.2320915063980216	-0.2611945917725039	-0.03949804184376385	0.07472165899815593	0.07472165899818622	0.1739911880577358	0.1745226725305644	0.03314102042408344	-0.003236022964752179	-0.02136413401613707	-0.009097997678645272	-0.008302176670584142	0.1250726884982534	0.005857245184968619	0.04408966546240654	-0.08894465459265223	0.1530532073415889	0.1530532073415941	-0.05324541710637536	-0.0008817100154956095	0.06571802845298526	0.02106924297816017	0.21571264234324	-0.2133333174532049	-0.04455198959342885	-0.4147459220596934	0.4187118808861335	-0.1012958870461441	-0.1099004602521352	-39.1273191991444	86.61131147926879	-19.34079521119034	-7.293010602787747	-47.08231362099175	-681.2629281481913	97.38752246457368	-1.105965421468478	-0.4952300350465707	-0.4285331876296939	6.283095320253333	0.2198026638532343	1.956884113069327	-4.19671208631768	7.615351292894064	7.615351292894144	-2.478833227169094	0.190411889995235	3.171635116722184	0.9527395495021468	1.544924706506097e-07	8.033718136506242e-08	-9.920464837007988e-07	2.348797584442037e-07	7.112178626140442e-08	-2.062252924380981e-07	-4.764877227955991e-07
0.03	-0.006997950861222158	0.09605736067869107	0.942537079045209	0.1790694956094584	-0.2320208821772841	-0.2606499294118699	-0.04059861688754783	0.07662244248421274	0.07662244248423666	0.1733349284827567	0.174514159123575	0.03395346157677178	-0.002977382435363454	-0.03139234075960447	-0.01392812319269678	-0.01243981122844336	0.1854117869840675	0.00821111741728643	0.06474559579670512	-0.1308741250681552	0.2267759677729073	0.2267759677729039	-0.07777856026470163	-0.0008413214745889354	0.09662200810556237	0.03056858408130038	0.2100540888150754	-0.2014558313632812	-0.04310513578089321	-0.4075073814304402	0.4098581448770225	-0.1072878743499048	-0.105424531608199	-39.1898277748091	83.56646768866381	-22.48281514150696	-6.784582877171561	-45.01439039343288	-680.9193041133657	90.0530333103361	-0.9419451840846459	-0.4729607985894037	-0.4069588463783479	5.863678041703747	0.2346039568714613	2.105427053517777	-4.146630163913575	7.201579075031225	7.201579075029804	-2.406492925116368	-0.0921236339569689	3.027581497234244	0.9348592388107612	1.643168640821777e-07	7.988274007146603e-08	-1.053378610084281e-06	2.209396163928873e-07	8.266465241314055e-08	-2.92268532114025e-07	-4.872258894874811e-07
